<?xml version="1.0" encoding="UTF-8"?>
<svg width="54px" height="19px" viewBox="0 0 54 19" version="1.1" xmlns="http://www.w3.org/2000/svg" xmlns:xlink="http://www.w3.org/1999/xlink">
    <!-- Generator: Sketch 58 (84663) - https://sketch.com -->
    <title>logo Intagono</title>
    <desc>Created with Sketch.</desc>
    <defs>
        <polygon id="path-1" points="0.327910345 0.574903226 11.7808759 0.574903226 11.7808759 12.1940375 0.327910345 12.1940375"></polygon>
    </defs>
    <g id="Symbols" stroke="none" stroke-width="1" fill="none" fill-rule="evenodd">
        <g id="Group-10" transform="translate(-1235.000000, -227.000000)">
            <g id="Group-5" transform="translate(1172.000000, 201.000000)">
                <g id="logo-Intagono" transform="translate(63.000000, 26.000000)">
                    <g id="Group-20">
                        <path d="M0.463344828,18.1602613 C0.463344828,18.1602613 0.281482759,18.2013258 1.701,17.8997774 C3.12175862,17.604971 5.1507931,17.1839065 7.58575862,16.6782613 C8.80355172,16.4263581 10.1231379,16.154229 11.5184483,15.8661645 C12.9143793,15.5830032 14.3872759,15.2851323 15.9104483,14.976229 C18.9561724,14.3547452 22.211069,13.7271323 25.4641034,13.0878742 C27.0878276,12.7556806 28.7140345,12.4351323 30.311069,12.094971 C31.9074828,11.7548097 33.4815517,11.4367129 35.0115517,11.1651968 C36.5427931,10.9041 38.0281034,10.6779387 39.4414138,10.4934548 C40.1471379,10.3960032 40.8367241,10.3157129 41.5021034,10.2317452 C42.1693448,10.1575839 42.8142414,10.0864871 43.433069,10.0178419 C44.0512759,9.94551935 44.6465172,9.89219677 45.2125862,9.8407129 C45.7786552,9.79168065 46.3136897,9.73222903 46.8207931,9.69913226 C47.3266552,9.66174516 47.8002414,9.62680968 48.2384483,9.5937129 C48.6772759,9.56858387 49.0807241,9.54529355 49.445069,9.52384194 C50.1743793,9.48461613 50.7491379,9.46377742 51.1420345,9.45458387 C51.534931,9.44722903 51.7441034,9.44355161 51.7441034,9.44355161 L51.7856897,9.67768065 C51.7856897,9.67768065 51.587069,9.74387419 51.2140345,9.86706774 C50.841,9.98842258 50.292931,10.1594226 49.5921724,10.3647452 C49.2421034,10.4652613 48.8541724,10.5774226 48.4321034,10.6987774 C48.0081724,10.8133903 47.5501034,10.9371968 47.061,11.0701968 C46.5725172,11.2068742 46.0480345,11.3288419 45.4981034,11.4704226 C44.9475517,11.6095516 44.3684483,11.7572613 43.7614138,11.8933258 C43.155,12.0342935 42.5237586,12.1813903 41.8701724,12.3333903 C41.2147241,12.4743581 40.5381724,12.6275839 39.8405172,12.7697774 C38.4464483,13.0651968 36.9704483,13.3446806 35.4392069,13.6070032 C33.9061034,13.8589065 32.3152759,14.0813903 30.6958966,14.2910032 C29.0758966,14.5000032 27.4354138,14.7378097 25.7924483,14.9633581 C22.5108621,15.4401968 19.2317586,15.9292935 16.1518966,16.3540355 C14.6119655,16.5691645 13.1235517,16.7763258 11.7121034,16.9730677 C10.3000345,17.1649065 8.96493103,17.3457129 7.73224138,17.5130355 C5.26686207,17.8446161 3.21175862,18.1210355 1.77362069,18.3147129 C0.334241379,18.5016484 0.504310345,18.3943903 0.504310345,18.3943903 L0.463344828,18.1602613 Z" id="Fill-1" fill="#000000"></path>
                        <path d="M1.21686207,11.6156806 C1.93189655,10.4260355 3.1112069,9.10461613 4.04037931,8.04674516 C4.96893103,6.9894871 5.55486207,6.40968065 6.525,5.44497097 C7.49513793,4.47964839 8.25796552,3.75397097 9.00962069,3.13984194 C9.76065517,2.52632581 10.1094828,2.2014871 10.314931,2.13651935 C10.4992759,2.07768065 10.8152069,2.10955161 10.9672759,2.23519677 C11.2906552,2.50242258 11.4905172,2.62990645 11.4905172,2.91000323 C11.4905172,3.1901 10.8077586,3.94213226 9.26037931,5.92793871 C7.74527586,7.87329355 5.4332069,10.859971 4.64244828,11.9006806 C3.25955172,13.7216161 2.44334483,15.267971 1.74755172,15.508229 C1.37141379,15.6387774 0.673137931,15.6246806 0.354103448,15.204229 C-0.589965517,13.9575839 0.582517241,12.6704871 1.21686207,11.6156806" id="Fill-3" fill="#000000"></path>
                        <path d="M12.3772966,11.4782677 L12.9036414,11.1699774 C13.0637793,11.1387194 13.146331,11.1865258 13.1500552,11.3109452 C13.1587448,11.6063645 12.9235034,11.9354935 12.4449517,12.2971065 C11.9657793,12.6581065 11.506469,12.8818161 11.0657793,12.9676226 C10.624469,13.053429 10.2812276,13.0258484 10.0348138,12.8848806 C9.7884,12.7439129 9.65991724,12.4803645 9.64812414,12.0942355 C9.63633103,11.7074935 9.84488276,11.1871387 10.2744,10.5319452 C10.3302621,10.4639129 10.3575724,10.4099774 10.356331,10.3701387 C10.3550897,10.3303 10.3315034,10.3149774 10.2855724,10.3235581 C10.2396414,10.3327516 10.1999172,10.3523645 10.1664,10.381171 C10.1328828,10.4105903 9.89081379,10.6122355 9.44143448,10.9854935 C8.36329655,11.8919774 7.59302069,12.5275581 7.13184828,12.8916226 C6.94005517,13.0313645 6.7581931,13.1177839 6.58688276,13.1514935 C6.41433103,13.1845903 6.22253793,13.1141065 6.00964138,12.9382032 C5.79736552,12.7623 5.68750345,12.566171 5.68067586,12.350429 C5.66702069,11.8956548 6.28895172,10.9370742 7.54646897,9.4753 C8.8046069,8.0129129 9.6624,7.23759032 10.120469,7.14871935 C10.2930207,7.1383 10.444469,7.20633226 10.5760552,7.35159032 C10.7070207,7.49807419 10.7765379,7.68746129 10.7833655,7.92036452 C10.7901931,8.15326774 10.7380552,8.43826774 10.5481241,8.72939677 C10.2539172,9.18110645 10.1055724,9.37233226 9.98826207,9.55252581 C9.85977931,9.75110645 9.73936552,9.9699129 9.7406069,10.0097516 C9.74184828,10.0495903 9.70584828,10.0164935 9.7406069,10.0097516 C9.77474483,10.0030097 9.95784828,9.85284839 10.0199172,9.80013871 C10.0813655,9.74865484 10.5332276,9.46120323 11.5381241,8.59700968 C12.5430207,7.73281613 13.1072276,7.2523 13.2313655,7.15362258 C13.3548828,7.05494516 13.4914345,6.99120323 13.6404,6.96239677 C13.7887448,6.93420323 13.9861241,6.9673 14.2306759,7.0623 C14.4758483,7.1579129 14.6018483,7.32462258 14.6086759,7.56304194 C14.6161241,7.80207419 14.4175034,8.19494516 14.0140552,8.74226774 C13.6093655,9.28959032 13.2021931,9.82036452 12.7919172,10.3345903 C12.3810207,10.8488161 12.1786759,11.1969452 12.1842621,11.3783645 C12.1867448,11.4696871 12.2506759,11.5027839 12.3772966,11.4782677" id="Fill-5" fill="#000000"></path>
                        <g id="Group-9" transform="translate(13.655172, 0.037939)">
                            <mask id="mask-2" fill="white">
                                <use xlink:href="#path-1"></use>
                            </mask>
                            <g id="Clip-8"></g>
                            <path d="M1.24342759,5.08194839 C1.24342759,4.89991613 1.73873793,4.65414194 2.72873793,4.3440129 C3.71935862,4.03388387 4.77887586,3.75869032 5.90728966,3.51598065 C6.85135862,2.52062581 7.70418621,1.6644 8.46391034,0.948529032 L8.8443931,0.578948387 C9.01694483,0.550754839 9.10322069,0.661690323 9.10322069,0.911754839 L9.13797931,1.74223871 C9.10322069,1.8727871 8.86177241,2.30549677 8.4123931,3.03791613 L9.2583931,2.8994 C10.5370138,2.6897871 11.2768759,2.69162581 11.4786,2.90246452 C11.6797034,3.11452903 11.7808759,3.29410968 11.7808759,3.44181935 C11.7808759,3.63549677 11.5847379,3.76972258 11.1930828,3.84510968 C10.8020483,3.92049677 9.57556552,4.12643226 7.51363448,4.46475484 C5.86694483,6.40581935 4.57777241,8.10110968 3.64487586,9.5500129 C3.28735862,10.0856903 2.9763931,10.5631419 2.71197931,10.9817548 C2.44694483,11.4009806 2.24273793,11.6988516 2.09873793,11.8759806 C1.95473793,12.0524968 1.81942759,12.1511742 1.6928069,12.1726258 C1.31232414,12.234529 0.990186207,12.1622065 0.725151724,11.9556581 C0.460117241,11.7491097 0.327910345,11.4634968 0.327910345,11.0994323 C0.327910345,10.0991742 1.73873793,8.05391613 4.5603931,4.96549677 L1.90011724,5.40065806 C1.46253103,5.47236774 1.24342759,5.36633548 1.24342759,5.08194839" id="Fill-7" fill="#000000" mask="url(#mask-2)"></path>
                        </g>
                        <path d="M23.4005586,9.95275161 C23.4005586,10.0097516 23.4409034,10.0428484 23.5215931,10.0520419 C23.6022828,10.039171 23.8815931,9.83139677 24.3595241,9.42871935 C24.8368345,9.02665484 25.1080759,8.80294516 25.1713862,8.75881613 C25.2340759,8.71407419 25.2949034,8.68710645 25.3526276,8.6779129 C25.5140069,8.65155806 25.5940759,8.7146871 25.5940759,8.86852581 C25.5940759,9.02175161 25.1887655,9.42688065 24.3769034,10.0826871 C23.5644207,10.7384935 22.9915241,11.0939774 22.6575931,11.1485258 C22.5198,11.1712032 22.3726966,11.1381065 22.2175241,11.0504613 C22.061731,10.9622032 21.9841448,10.8414613 21.9841448,10.6876226 C21.9841448,10.5343968 22.0244897,10.3597194 22.1051793,10.1648161 C22.1852483,9.9699129 22.2255931,9.84120323 22.2255931,9.77807419 C22.2255931,9.71555806 22.2082138,9.68736452 22.1740759,9.69288065 C22.1393172,9.69839677 22.1051793,9.71555806 22.0704207,9.74375161 C20.9531793,10.7574935 20.1295241,11.3072677 19.6000759,11.3936871 C19.3009034,11.4427194 19.0650414,11.3728484 18.891869,11.1853 C18.7193172,10.9977516 18.6156621,10.7985581 18.5815241,10.5883323 L18.5467655,10.2696226 C18.5467655,9.89452581 18.6932483,9.43546129 18.9868345,8.89242903 C19.2804207,8.35000968 19.6664897,7.81494516 20.1444207,7.28723548 C20.6223517,6.76013871 21.2095241,6.28575161 21.9065586,5.8646871 C22.6029724,5.44362258 23.3142828,5.17333226 24.039869,5.05504194 C24.4309034,4.9906871 24.7964897,5.03297742 25.1366276,5.18252581 C25.4761448,5.33146129 25.6462138,5.5423 25.6462138,5.81565484 C25.6462138,6.08839677 25.3755931,6.29739677 24.8343517,6.44265484 C24.4309034,6.60017097 23.7661448,7.03594516 22.8388345,7.74997742 C21.9121448,8.46462258 21.4484897,8.97026774 21.4484897,9.2656871 C21.4484897,9.39133226 21.5118,9.44342903 21.6384207,9.42259032 C21.8686966,9.38459032 22.4130414,8.97149355 23.2708345,8.1826871 C24.1286276,7.39388065 24.6444207,6.9856871 24.8169724,6.95749355 C24.9901448,6.9293 25.0764207,7.01694516 25.0764207,7.22165484 C25.0764207,7.36997742 25.0211793,7.5183 24.9119379,7.66662258 C24.8020759,7.81555806 24.7244897,7.92220323 24.6785586,7.98655806 C24.5866966,8.11526774 24.3508345,8.40700968 23.9703517,8.86117097 C23.5904897,9.31594516 23.4005586,9.68000968 23.4005586,9.95275161" id="Fill-10" fill="#000000"></path>
                        <path d="M28.2516828,8.83346774 C27.5602345,9.36730645 27.0022345,9.66946774 26.5758207,9.73872581 C26.1494069,9.80859677 25.827269,9.71420968 25.6087862,9.45372581 C25.3896828,9.19446774 25.2804414,8.94501613 25.2804414,8.70598387 C25.2804414,8.46695161 25.3555448,8.18195161 25.505131,7.85037097 C25.6540966,7.51879032 25.8880966,7.14001613 26.2046483,6.71282258 C26.5212,6.28501613 26.8867862,5.87314516 27.3014069,5.47537097 C27.7160276,5.07759677 28.2256138,4.71843548 28.8301655,4.3978871 C29.4347172,4.07672581 30.0653379,3.86282258 30.7220276,3.75556452 C30.9982345,3.71020968 31.3147862,3.75801613 31.6716828,3.89837097 C32.0285793,4.03933871 32.2073379,4.25140323 32.2073379,4.53579032 C32.2073379,4.72946774 32.0459586,4.8918871 31.7238207,5.02427419 C30.8486483,5.4061129 29.9877517,5.91420968 29.141131,6.54733871 C28.2945103,7.18046774 27.8718207,7.70756452 27.8718207,8.12862903 C27.8718207,8.24201613 27.9233379,8.28982258 28.0269931,8.27327419 C28.3956828,8.21259677 29.0666483,7.71124194 30.039269,6.76675806 C31.0125103,5.8228871 31.5165103,5.3478871 31.551269,5.34237097 C31.7120276,5.31601613 31.7927172,5.41101613 31.7927172,5.62675806 C31.7927172,6.1275 31.5338897,6.95430645 31.0156138,8.10779032 C30.4973379,9.2618871 29.8605103,10.4490806 29.1063724,11.6699839 C28.3522345,12.8908871 27.4801655,13.9971774 26.4895448,14.9900806 C25.4989241,15.9817581 24.7280276,16.4800484 23.8987862,16.6155 C23.7721655,16.6363387 23.4810621,16.5995645 23.3029241,16.3734032 C23.1241655,16.146629 23.0347862,15.9535645 23.0347862,15.7942097 C23.0347862,15.6354677 23.0409931,15.5374032 23.0521655,15.5018548 C23.1676138,15.0734355 23.9099586,14.2521452 25.2804414,13.0385968 C25.8446483,12.5482742 26.403269,12.0444677 26.9563034,11.5277903 C27.5087172,11.0105 27.9754759,10.4791129 28.3553379,9.93362903 C28.7352,9.38875806 28.925131,8.90579032 28.925131,8.4841129 C28.925131,8.46143548 28.8847862,8.45653226 28.8040966,8.47001613 C28.7240276,8.4835 28.5390621,8.60485484 28.2516828,8.83346774" id="Fill-12" fill="#000000"></path>
                        <path d="M35.9491034,5.37160645 C35.5804138,5.70502581 35.2204138,6.11076774 34.8691034,6.58883226 C34.5177931,7.06689677 34.3421379,7.44015484 34.3421379,7.70738065 C34.3421379,7.97460645 34.4172414,8.09534839 34.5668276,8.07083226 C34.7971034,8.03344516 35.2204138,7.61421935 35.8367586,6.81438065 C36.4524828,6.01392903 36.7609655,5.38631613 36.7609655,4.93154194 C36.7609655,4.86350968 36.7175172,4.83654194 36.6312414,4.85063871 C36.5449655,4.86473548 36.3171724,5.0381871 35.9491034,5.37160645 M37.3655172,4.3548 C37.3655172,4.66186452 37.5498621,4.78505806 37.917931,4.72499355 C38.2636552,4.66860645 38.6435172,4.52089677 39.0587586,4.28247742 C39.4727586,4.04405806 39.6974483,3.92209032 39.7322069,3.91657419 C39.7669655,3.91044516 39.8035862,3.93312258 39.8445517,3.98338065 C39.8848966,4.03363871 39.9047586,4.08696129 39.9047586,4.14396129 C39.9047586,4.26899355 39.6372414,4.47492903 39.1015862,4.76115484 C38.565931,5.04860645 38.1773793,5.21102581 37.9353103,5.25086452 C37.6938621,5.29070323 37.5237931,5.31583226 37.4257241,5.32625161 C37.3276552,5.33605806 37.250069,5.40899355 37.1929655,5.54321935 C36.3407586,7.26363871 35.4935172,8.39689677 34.6537241,8.94360645 C34.2844138,9.18631613 33.8964828,9.34076774 33.4874483,9.4081871 C33.0784138,9.47499355 32.7444828,9.39531613 32.4856552,9.17099355 C32.2262069,8.94605806 32.0971034,8.54338065 32.0971034,7.9641871 C32.0971034,7.15638065 32.3646207,6.35899355 32.9002759,5.57202581 C33.4353103,4.78505806 34.0429655,4.15989677 34.7226207,3.69592903 C35.4022759,3.23257419 36.018,2.95554194 36.5710345,2.86483226 C37.503931,2.81396129 37.970069,3.01683226 37.970069,3.47160645 C37.970069,3.59663871 37.9384138,3.71247742 37.8751034,3.81973548 C37.8117931,3.92638065 37.7596552,3.99196129 37.719931,4.01525161 C37.6789655,4.03915484 37.6305517,4.06183226 37.5728276,4.08205806 C37.4344138,4.13905806 37.3655172,4.22976774 37.3655172,4.3548" id="Fill-14" fill="#000000"></path>
                        <path d="M49.4687172,3.4573871 C49.1000276,3.79080645 48.7400276,4.19654839 48.3887172,4.6746129 C48.0380276,5.15329032 47.8623724,5.52593548 47.8623724,5.79316129 C47.8623724,6.0603871 47.9368552,6.18112903 48.0864414,6.1566129 C48.3167172,6.11922581 48.7400276,5.7006129 49.3563724,4.90016129 C49.9720966,4.09970968 50.2805793,3.47209677 50.2805793,3.01732258 C50.2805793,2.94929032 50.2377517,2.92232258 50.1508552,2.93641935 C50.0645793,2.95051613 49.8374069,3.12396774 49.4687172,3.4573871 M50.8857517,2.44058065 C50.8857517,2.74764516 51.0694759,2.87145161 51.4381655,2.81077419 C51.783269,2.7543871 52.1637517,2.60729032 52.5783724,2.36825806 C52.9929931,2.12983871 53.2170621,2.00787097 53.2518207,2.00235484 C53.2865793,1.99683871 53.3238207,2.01890323 53.3641655,2.06916129 C53.4045103,2.11941935 53.4243724,2.17335484 53.4243724,2.22974194 C53.4243724,2.35477419 53.1568552,2.56070968 52.6212,2.84693548 C52.0855448,3.1343871 51.6969931,3.29741935 51.4555448,3.33664516 C51.2134759,3.37648387 51.0434069,3.4016129 50.9459586,3.41203226 C50.8478897,3.42245161 50.7696828,3.49477419 50.7125793,3.629 C49.8603724,5.34941935 49.0137517,6.48267742 48.1733379,7.0293871 C47.8046483,7.27209677 47.4160966,7.42654839 47.0070621,7.49396774 C46.5986483,7.56077419 46.2640966,7.48170968 46.005269,7.25677419 C45.7458207,7.03245161 45.6167172,6.62977419 45.6167172,6.04996774 C45.6167172,5.24277419 45.8842345,4.4453871 46.4198897,3.65780645 C46.9555448,2.87083871 47.5625793,2.24629032 48.2422345,1.78170968 C48.9218897,1.31835484 49.5376138,1.04132258 50.0906483,0.950612903 C51.0235448,0.899741935 51.4896828,1.1026129 51.4896828,1.5573871 C51.4896828,1.68241935 51.4580276,1.79887097 51.3947172,1.90551613 C51.3314069,2.01277419 51.279269,2.07774194 51.2395448,2.10164516 C51.1992,2.12493548 51.1501655,2.1476129 51.0924414,2.16845161 C50.9540276,2.22483871 50.8857517,2.31554839 50.8857517,2.44058065" id="Fill-16" fill="#000000"></path>
                        <path d="M46.1384069,5.03291613 C46.1191655,4.96365806 46.0763379,4.90481935 46.0105448,4.8564 C45.944131,4.80798065 45.8907517,4.79265806 45.8510276,4.81104516 C45.8100621,4.82943226 45.7647517,4.91033548 45.3091655,5.30810968 C44.7803379,5.76962581 44.3948897,6.10181935 43.9579241,6.37027097 L43.9573034,6.37088387 L43.8753724,6.42114194 C43.7499931,6.44810968 43.6854414,6.41685161 43.6798552,6.32675484 C43.6767517,6.25994839 43.7009586,6.16923871 43.7530966,6.05523871 C43.7530966,6.05523871 43.7537172,6.0534 43.7543379,6.0527871 C43.7605448,6.03807742 43.7698552,6.02152903 43.7773034,6.00681935 C43.8710276,5.81804516 44.0317862,5.57349677 44.2639241,5.26888387 C44.6630276,4.74546452 45.0584069,4.20672258 45.4500621,3.65020645 C45.8417172,3.09491613 46.0316483,2.69714194 46.0192345,2.45872258 C46.0062,2.22030323 45.8764759,2.05604516 45.6300621,1.96594839 C45.5611655,1.94081935 45.4972345,1.92181935 45.4364069,1.90649677 C45.3942,1.89546452 45.3557172,1.88810968 45.3172345,1.88136774 C45.3104069,1.88014194 45.3023379,1.87769032 45.2955103,1.87707742 C45.1875103,1.85930323 45.0925448,1.85807742 45.0137172,1.87585161 C44.8653724,1.90894839 44.7306828,1.97575484 44.6096483,2.07749677 C44.4886138,2.17985161 43.9374414,2.67569032 42.9573724,3.56623871 C41.9766828,4.4574 41.5328897,4.75649677 41.4726828,4.81043226 C41.4155793,4.86130323 41.2560621,4.99920645 41.2095103,5.02065806 C41.2088897,5.01636774 41.2064069,5.01514194 41.2064069,5.01023871 C41.2064069,5.01023871 41.2070276,4.99920645 41.2070276,4.99552903 C41.2330966,4.91891613 41.3299241,4.73443226 41.4342,4.56343226 C41.5465448,4.38017419 41.6899241,4.18465806 41.9710966,3.72498065 C42.1529586,3.42894839 42.1976483,3.14333548 42.1839931,2.91043226 C42.1703379,2.67752903 42.0958552,2.48998065 41.9611655,2.3477871 C41.8258552,2.20559355 41.6725448,2.14185161 41.4999931,2.15656129 C41.084131,2.24910968 40.3479931,2.92881935 39.2984069,4.18220645 C39.2022,4.28762581 39.1035103,4.39917419 39.0010966,4.52359355 C37.7764759,6.01294839 37.176269,6.9844 37.1998552,7.43917419 C37.2004759,7.45081935 37.2048207,7.46185161 37.2060621,7.47349677 L37.2060621,7.47594839 C37.2079241,7.51456129 37.2172345,7.55194839 37.2265448,7.58872258 L37.2277862,7.59669032 C37.2699931,7.7640129 37.3748897,7.91723871 37.5511655,8.05452903 C37.7684069,8.22491613 37.9626828,8.29049677 38.1333724,8.25249677 C38.3040621,8.21449677 38.4834414,8.12317419 38.6708897,7.97791613 C39.122131,7.60159355 39.8744069,6.9457871 40.9277172,6.00988387 C41.3665448,5.62498065 41.6024069,5.41720645 41.6353034,5.38717419 C41.6682,5.35652903 41.7073034,5.33630323 41.7526138,5.32588387 C41.7985448,5.31607742 41.822131,5.3307871 41.8246138,5.37062581 C41.8258552,5.3877871 41.8190276,5.40923871 41.8097172,5.43130323 C41.7966828,5.45827097 41.7780621,5.48769032 41.7519931,5.5207871 C41.3373724,6.18517419 41.1399931,6.71043226 41.1598552,7.09656129 C41.1654414,7.19952903 41.1803379,7.29207742 41.2026828,7.37727097 C41.2076483,7.39933548 41.2175793,7.41588387 41.2237862,7.43672258 C41.2405448,7.48759355 41.2554414,7.53969032 41.2784069,7.58381935 C41.3466828,7.71988387 41.444131,7.82407742 41.5726138,7.89333548 C41.8233724,8.02756129 42.1672345,8.04594839 42.6054414,7.94788387 C43.0380621,7.85227097 43.4843379,7.61998065 43.946131,7.25530323 C44.2850276,7.03281935 44.8827517,6.50388387 45.3631655,6.05094839 C45.9224069,5.52569032 46.1806138,5.18614194 46.1384069,5.03291613" id="Fill-18" fill="#000000"></path>
                    </g>
                </g>
            </g>
        </g>
    </g>
</svg>